<svg width="81" height="80" viewBox="0 0 81 80" fill="none" xmlns="http://www.w3.org/2000/svg">
<path d="M28 7.5V17.5" stroke="#404040" stroke-width="2" stroke-linecap="round" stroke-linejoin="round"/>
<path d="M38 7.5V17.5" stroke="#404040" stroke-width="2" stroke-linecap="round" stroke-linejoin="round"/>
<path d="M48 7.5V17.5" stroke="#404040" stroke-width="2" stroke-linecap="round" stroke-linejoin="round"/>
<path d="M10.5 67.5H65.5" stroke="#404040" stroke-width="2" stroke-linecap="round" stroke-linejoin="round"/>
<path d="M26.5313 67.5C21.7465 65.3045 17.6924 61.7817 14.8507 57.3501C12.0089 52.9186 10.4989 47.7644 10.5 42.5V27.5H65.5V42.5C65.5011 47.7644 63.9911 52.9186 61.1493 57.3501C58.3076 61.7817 54.2535 65.3045 49.4687 67.5" stroke="#404040" stroke-width="2" stroke-linecap="round" stroke-linejoin="round"/>
<path d="M65.5 27.5C68.1522 27.5 70.6957 28.5536 72.5711 30.4289C74.4464 32.3043 75.5 34.8478 75.5 37.5V40C75.5 42.6522 74.4464 45.1957 72.5711 47.0711C70.6957 48.9464 68.1522 50 65.5 50H64.4375" stroke="#404040" stroke-width="2" stroke-linecap="round" stroke-linejoin="round"/>
</svg>
